<svg width="173" height="52" fill="none" xmlns="http://www.w3.org/2000/svg"><g clip-path="url(#clip0)"><path d="M81.5 16.2l1.2-4.8c.1-.6.3-1.3.4-2h.8c0 .4.2 1 .4 2l1.2 4.8h-4zM93 24.4L87.7 6.9c-.1-.4-.3-.8-.7-1-.3-.2-.7-.4-1.1-.4h-4.8c-.4 0-.8.1-1.1.4-.3.2-.6.6-.6 1l-5.3 17.5h5.4l1.2-4.5h5.9l1.2 4.5H93zm7.8-9.1c0-.6.5-1.1 1.2-1.1h1.3v10.2h5.1V10.9H100c-2.4 0-3.6 1.2-3.8 3.5-.1 1.8-.3 3.6-.7 5.3 0 .1-.1.3-.1.4-.1.1-.1.2-.3.3l-.3.2c-.1.1-.2.1-.4.1l-.4.1-.5.1h-.4l.5 3.5c4.3.6 5.9-.5 6.4-3.4.2-1.1.5-3 .8-5.7zm15.1 2.9h1.6c.5-.1 1 0 1.4.3.3.4.4.8.3 1.3.1.5-.1.9-.3 1.3-.4.2-.9.4-1.4.3h-1.6v-3.2zm2.5 6.4c1.6.1 3.2-.2 4.6-1 .9-.7 1.4-1.9 1.4-3.6 0-1.7-.5-3-1.5-3.7-1-.7-2.8-1-5.4-1h-1.6v-4.4h-4.8v13.6h.1c1.7 0 4.1.1 7.2.1zM134.7 14v2.9h-2c-.5.1-.9-.1-1.3-.3-.2-.4-.3-.9-.3-1.4 0-.4.1-.7.3-1 .4-.2.8-.3 1.3-.3l2 .1zm-7.2-2.6c-.9.6-1.3 1.8-1.3 3.5-.2 1.8 1.2 3.5 3 3.7v.1c-1.5.1-2.4.6-2.7 1.5l-1.1 4.3h5.2l.9-3.6c0-.3.1-.5.4-.6.3-.1.6-.2.9-.2h1.9v4.4h4.9V10.8c-1.3-.1-3.7-.2-7-.2-2.5-.1-4.2.2-5.1.8zm20.2 7.5h4.2v5.5h5V10.9h-5v4.7h-4.2v-4.7h-5v13.5h5v-5.5zm18.8 5.9c2 .1 3.9-.2 5.8-1l-.4-3.1c-1.5.2-2.9.2-4.4.2-.8.1-1.6-.2-2.2-.6-.5-.7-.7-1.6-.6-2.5-.1-.9.1-1.8.6-2.5.6-.5 1.4-.7 2.2-.6h4.1l.5-3.1c-1.8-.7-3.6-1-5.5-.9-2.7 0-4.5.5-5.6 1.6-1.1 1.1-1.6 2.9-1.6 5.5s.5 4.5 1.6 5.5c1 1 2.9 1.5 5.5 1.5zm-92.3 8.8h5.2v12.2h1.2V33.6h5.2v-.9H74.2v.9zm13.9 5.3c0-2.1.4-3.5 1.1-4.3 1-.9 2.3-1.4 3.7-1.2 1.1-.1 2.2.2 3.2.7.7.5 1.1 1.4 1.1 2.3 0 1.7-.6 2.6-2 2.6l-7.1-.1zm9.5 0c.5-.8.8-1.7.6-2.7 0-2.6-1.8-3.9-5.4-3.9-2.1 0-3.6.5-4.5 1.5-.9 1-1.3 2.8-1.3 5.3s.5 4.3 1.4 5.4c.9 1.1 2.5 1.6 4.7 1.6 1.7.1 3.3-.1 4.9-.5l-.1-.8c-1.5.2-3.1.4-4.7.4-1.4.1-2.7-.3-3.8-1.2-.8-.8-1.2-2.2-1.3-4.2h7.2c.9.1 1.7-.2 2.3-.9zm6.7-5.6c-.5.5-.8 1.2-.9 2 0 .1-.1.6-.2 1.5s-.2 1.6-.3 2.2c-.1.7-.2 1.3-.4 2s-.4 1.3-.7 1.9c-.5 1-1.4 1.7-2.4 2l.1.9c1.5-.2 2.7-1.2 3.3-2.5.2-.4.3-.8.5-1.2.1-.5.3-.8.3-1.2 0-.4.2-.8.3-1.4.1-.6.2-1.1.2-1.3 0-.2.1-.7.2-1.5s.1-1.2.2-1.3c0-.5.2-1 .6-1.4.4-.3.9-.5 1.4-.5h3.9v12.3h1.1V32.7h-5.1c-.8-.1-1.6.1-2.1.6zm11.3 5.6c0-2.1.4-3.5 1.1-4.3 1-.9 2.3-1.4 3.7-1.2 1.1-.1 2.2.2 3.2.7.7.5 1.1 1.4 1.1 2.3 0 1.7-.6 2.6-2 2.6l-7.1-.1zm9.5 0c.5-.8.7-1.7.6-2.7 0-2.6-1.9-3.9-5.4-3.9-2.1 0-3.6.5-4.5 1.5-.9 1-1.3 2.8-1.3 5.3s.5 4.3 1.4 5.4c.9 1.1 2.5 1.6 4.7 1.6 1.7.1 3.3-.1 4.9-.5l-.1-.8c-1.5.2-3.1.3-4.6.3-1.4.1-2.7-.3-3.8-1.2-.8-.8-1.2-2.2-1.3-4.2h7.2c.8.2 1.6-.2 2.2-.8zm12.9 4c-.3-.7-.7-1.3-1.1-1.9-.4-.6-.9-1.1-1.5-1.5-.6-.3-1.2-.5-1.9-.5.5-.1 1.1-.2 1.5-.5.4-.2.8-.5 1.2-.9.4-.4.7-.9 1-1.5.4-.7.7-1.2.9-1.6l.9-1.9h-1.2c0 .1-.1.2-.1.3l-.9 1.7-.9 1.5c-.3.5-.6.9-1 1.3-.4.3-.8.6-1.2.8-.5.2-1 .3-1.6.3h-2.6c.1-.5.1-1.1.1-1.6v-4.3h-1.1v13.2h1.1v-4.9c0-.5 0-1-.1-1.5h2.8c1.5.1 2.9.9 3.6 2.2.8 1.4 1.6 2.8 2.2 4.3h1.2c0-.1-.1-.2-.2-.4-.4-1.2-.8-2-1.1-2.6zm13.3 1c-.7.9-2 1.3-3.8 1.3-1.8 0-3.1-.4-3.8-1.3-.7-.9-1.1-2.4-1.1-4.7 0-2.3.4-3.8 1.1-4.6.7-.9 2-1.3 3.8-1.3 1.8 0 3.1.4 3.8 1.3.7.9 1.1 2.4 1.1 4.6 0 2.2-.4 3.8-1.1 4.7zm-3.8-11.6c-2.2 0-3.8.5-4.7 1.6-.9 1.1-1.4 2.8-1.4 5.3s.5 4.3 1.4 5.4c.9 1 2.5 1.5 4.7 1.5s3.8-.5 4.6-1.5c.9-1 1.3-2.8 1.3-5.4 0-2.5-.4-4.3-1.4-5.3-.7-1.1-2.3-1.6-4.5-1.6zm23.4.4h-1.4c-.2 0-.5.1-.5.4l-3.9 8.9c-.1.2-.4.8-.8 1.8h-.5c-.2-.5-.5-1.2-.8-1.8l-3.8-8.9c-.1-.2-.3-.4-.5-.4h-1.4c-.4 0-.5.2-.5.5l-.7 12.6h1.1l.6-12.3h.5l4.7 10.6c.1.3.3.4.5.4h1.2c.2 0 .4-.2.5-.4l4.6-10.6h.5l.6 12.3h1.1l-.6-12.6c0-.4-.1-.5-.5-.5z" fill="#424243"/><path d="M32.8 34.4L44.1 5.8c.4-1.2 1.6-1.9 2.8-1.9-.6-1.7-2.2-2.7-4-2.7H22.7c-.9 0-1.8.3-2.6.9l12.7 32.3z" stroke="#424243" stroke-width="2" stroke-miterlimit="10"/><path d="M61.4 40.4L47 3.9c-1.3 0-2.4.7-2.9 1.9L32.8 34.4l2.3 5.9c.5 1.2 1.6 2 2.9 2h21.9c.8 0 1.4-.6 1.4-1.4.1-.2.1-.3.1-.5z" stroke="#424243" stroke-width="2" stroke-miterlimit="10"/><path d="M20.1 2.1c-.6.5-1.1 1.1-1.4 1.9L1.2 48.2c-.1.2-.1.3-.1.5 0 .8.6 1.5 1.4 1.5h22c1.4 0 2.6-.8 3-2.1l5.4-13.7L20.1 2.1z" stroke="#424243" stroke-width="2" stroke-miterlimit="10"/></g><defs><clipPath id="clip0"><path fill="#fff" d="M0 0h172.3v51.1H0z"/></clipPath></defs></svg>